<?xml version="1.0" encoding="utf-8"?>
<!-- Generator: Adobe Illustrator 26.5.0, SVG Export Plug-In . SVG Version: 6.00 Build 0)  -->
<svg version="1.1" id="Layer_1" xmlns="http://www.w3.org/2000/svg" xmlns:xlink="http://www.w3.org/1999/xlink" x="0px" y="0px"
	 viewBox="0 0 86 45" style="enable-background:new 0 0 86 45;" xml:space="preserve">
<style type="text/css">
	.st0{fill:#FFFFFF;stroke:#000000;stroke-miterlimit:10;}
</style>
<rect class="st0" width="86" height="45"/>
<g>
	<path d="M6.6,22.2c0-0.1,0.2-0.3,0.4-0.4l0.2-0.2C7.7,21.1,8,20.1,8,18.7c0-0.8,0-1.8-0.1-2.8C8,14.7,8,13.8,8,13.5l-0.1-2.9
		C7.8,8.9,7.7,7.8,7.7,7.2c-0.2,0-0.4,0-0.6,0H6.5c-0.1,0-0.1,0-0.2-0.1C6.3,7,6.2,7,6.2,6.9s0-0.2,0.1-0.3c0.1,0,0.3-0.1,0.7-0.1
		h0.7h1c0.1,0,0.2,0,0.2,0.1S9,6.7,9,6.8S9,7,8.9,7S8.7,7.1,8.5,7.1H8.3c0,1.7,0.1,3.8,0.2,6.3c0,0.3,0,0.9,0.1,1.7
		c0.1,1.6,0.1,2.5,0.1,2.8c0,0.5,0,0.9,0,1.2c0,0.3-0.1,0.6-0.1,1c-0.1,0.4-0.2,0.7-0.3,0.9c-0.1,0.3-0.3,0.5-0.5,0.8
		S7.3,22.3,7,22.5C6.8,22.6,6.6,22.5,6.6,22.2z"/>
	<path d="M11.4,14.2v-0.7c0-3.5,0.4-5.2,1.3-5.2c0.1,0,0.1,0,0.3,0.1c0.4,0.1,0.8,0.2,1.2,0.3c0.2,0,0.5,0.3,0.7,0.7
		c0.3,0.4,0.5,1,0.6,1.8c0.1,0.7,0.2,1.5,0.2,2.3v0.1c0,0.4,0,0.8,0,1.1v1.1c0,0.6,0,1.2-0.1,1.7c-0.1,0.8-0.2,1.4-0.4,2
		c-0.1,0.3-0.2,0.6-0.4,0.8c-0.1,0.2-0.3,0.4-0.5,0.6c-0.2,0.1-0.4,0.2-0.7,0.2C12.2,21.1,11.4,18.8,11.4,14.2z M14.6,19.6
		c0.2-0.7,0.4-1.4,0.4-2.1s0.1-1.3,0.1-1.8c0-0.5,0-1.2-0.1-2.2c-0.1-1.1-0.1-1.8-0.1-2.2l-0.1-0.1v-0.1c0-0.5-0.2-1-0.5-1.4
		c-0.2-0.5-0.5-0.7-1-0.7c-0.6,0-0.9,0.3-1,0.8c0,0.2,0,0.5-0.1,0.8c0,0.9,0,1.6-0.1,1.9c0,0.2,0,0.5-0.1,0.9v0.9c0,0.3,0,0.5,0,0.7
		v0.7c0,0.6,0,1.3,0.1,2c0.1,0.6,0.2,1,0.3,1.4s0.2,0.7,0.4,1s0.4,0.4,0.7,0.4C14,20.6,14.4,20.2,14.6,19.6z"/>
	<path d="M21.5,20.9c0,0-0.1-0.2-0.1-0.3c-0.1-0.9-0.2-1.5-0.2-1.7l-0.1-0.7c-0.3-0.2-0.6-0.2-1-0.2h-0.7c-0.3,0-0.5-0.1-0.7-0.1
		c-0.1,0-0.1,0-0.1,0.1v0.1v0.4c0,0.2-0.1,0.7-0.2,1.3c-0.1,0.3-0.1,0.6-0.2,0.8c-0.1,0.2-0.2,0.3-0.3,0.3c-0.1,0-0.2,0-0.2-0.1
		s-0.1-0.1-0.1-0.2v-0.1v-0.1c0.2-0.9,0.4-1.8,0.6-2.6l0.2-1.2l0.2-1.4l0.2-1.2c0.1-0.3,0.2-0.9,0.3-1.6c0.2-0.8,0.3-1.4,0.3-1.7
		c0,0,0-0.3,0.1-0.7c0-0.5,0.1-0.8,0.1-1c0-0.3,0.1-0.5,0.1-0.6h0.1h0.1c0.1,0,0.3,0,0.3-0.1c0.1,0,0.2,0,0.2,0.1
		c0.1,0.1,0.1,0.1,0.1,0.2c0,0.6,0,1.3,0.1,2.1c0,0.4,0.1,0.7,0.1,1c0.1,1.6,0.5,4.6,1,9.1v0.1c0,0.1,0,0.2-0.1,0.3
		C21.7,20.9,21.5,20.9,21.5,20.9z M21,17.6c-0.1-1.8-0.4-4.4-0.7-7.9l-1,5c-0.3,1.4-0.4,2.3-0.4,2.7c0,0.1,0.2,0.1,0.7,0.2
		c0.5,0,0.9,0.1,1.3,0.1H21V17.6z"/>
	<path d="M25.4,20.9c-0.2-0.1-0.4-0.2-0.6-0.3s-0.3-0.3-0.5-0.6c-0.3-0.5-0.4-1.2-0.5-2.2c0-0.4,0-0.8,0-1.1v-2.1
		c0-0.8,0-1.6,0.1-2.4c0-0.6,0.1-1,0.2-1.4s0.2-0.8,0.4-1.2c0.2-0.4,0.4-0.7,0.6-0.8c0.1-0.1,0.3-0.2,0.5-0.3s0.3-0.1,0.5-0.2h0.7
		h0.1c0,0,0,0,0.1,0h0.1L27,8.4l0.1,0.1v0.1l-0.2,0.3H26c-0.2,0-0.5,0.1-0.6,0.3c-0.2,0.2-0.3,0.5-0.4,0.9c-0.1,0.3-0.2,0.7-0.2,1.1
		c-0.1,0.4-0.1,0.8-0.1,1.1c0,0.4,0,0.7,0,0.8v0.1c0,0.7,0,1.3,0,1.9V17c0,0.5,0,1.1,0.1,1.5c0.1,0.5,0.2,0.9,0.5,1.3
		s0.7,0.6,1.3,0.6c0.2,0,0.3-0.1,0.5-0.2c0.2,0,0.3,0.1,0.3,0.2s-0.1,0.2-0.2,0.3c-0.2,0.1-0.3,0.2-0.5,0.3h-0.6L25.4,20.9z"/>
	<path d="M32.2,20.8c-0.1-2.3-0.1-4-0.1-5L32,15.7l0.1-0.2c0-0.2,0-0.5-0.1-0.7l-0.3-0.1c-0.1,0-0.2,0.1-0.4,0.1
		c-0.1,0-0.3,0-0.6-0.1c-0.2-0.1-0.4-0.1-0.6-0.1l-0.2,0.1c0,0.4,0,0.8,0,1.2c0,0.3,0,0.7,0,1.2v0.1c0,0.3,0,0.9,0.1,1.6
		c0,0.7,0.1,1.2,0.1,1.6c0,0.1,0,0.3-0.1,0.3c-0.1,0.1-0.1,0.1-0.2,0.1c-0.3,0-0.4-0.4-0.4-1.1c0-0.6,0-1.2,0-1.7v-1.7
		c0-1.1,0-1.7-0.1-1.8c0.1-0.1,0.1-0.5,0.1-1.2c0-0.6,0-1.3-0.1-2.2v-0.7V8.9c0-0.1,0-0.2,0.1-0.2c0.1-0.1,0.1-0.1,0.2-0.1
		C29.8,8.6,30,9,30,9.7c0,0.8,0,1.6,0,2.3s0,1.4,0,2.3c0,0.1,0.5,0.2,1.4,0.2h0.1c0.2,0,0.4,0,0.5-0.1c0.1-0.1,0.2-0.3,0.2-0.5
		c0-0.7,0-1.5-0.1-2.6C32,10.2,32,9.3,32,8.7c0-0.1,0-0.1,0.1-0.2c0.1-0.1,0.1-0.1,0.2-0.1l0.2,0.1c0.1,0,0.1,0,0.2,0.1
		c0,1,0,2.4,0.1,4.4c0.1,1.9,0.1,3.4,0.1,4.4c0,1.5,0,2.7,0.1,3.7L32.7,21C32.7,20.9,32.5,20.8,32.2,20.8z M31.5,14L31.5,14L31.5,14
		L31.5,14z"/>
	<path d="M36,20.6C35.9,20.6,35.9,20.6,36,20.6h-0.2c-0.3,0-0.4-0.1-0.5-0.2c0-0.1,0-0.2,0.1-0.2l0.1-0.1H36V20v-0.2v-0.2
		c0-0.8,0-1.4-0.1-2v-0.7v-1.4c0-0.5,0-1.2,0.1-2.2v-2.2c0-0.9,0-1.7-0.1-2.2C35.8,9,35.6,9,35.4,9h-0.2C35.1,9,35,9,35,9
		c-0.2,0-0.4-0.1-0.4-0.3c0,0,0.1-0.1,0.2-0.1s0.2-0.1,0.3-0.1c0.5,0,0.9,0,1.4,0.1c0.3,0,0.6,0.1,0.9,0.2c0.2,0.1,0.3,0.2,0.3,0.3
		c0,0,0,0.1-0.1,0.1h-0.4c-0.1-0.1-0.3-0.1-0.5-0.1l-0.1,0.1c0,0.1,0.1,0.4,0.1,1c0,0.8,0,1.6,0,2.2v2.2c0,0.6,0,1.2,0.1,2
		c0,0.9,0.1,1.6,0.1,2.1v0.2c0,0.1,0,0.2,0,0.3c0,0.3,0,0.5,0.1,0.5l0,0c0,0.1,0.1,0.2,0.4,0.2c0.1,0,0.2,0,0.3,0H38
		c0.4,0,0.5,0.1,0.5,0.3c0,0.1,0,0.2-0.1,0.3s-0.2,0.1-0.3,0.1s-0.2,0-0.3,0s-0.2,0-0.3,0s-0.2,0-0.3,0.1s-0.3,0.1-0.3,0.1
		C36.2,20.8,36,20.7,36,20.6z"/>
	<path d="M46.9,20.5v-1.2c0-1.8,0-3.2-0.1-4.2l-0.1-0.7c0-0.3-0.1-0.6-0.1-0.8c0-0.4,0-0.8,0-1.2v-1.2c0-0.4,0-0.7-0.1-0.9
		c-0.2,0.2-1,2.8-2.3,7.9v0.3c0,0.3-0.1,0.6-0.1,0.7s-0.1,0.2-0.2,0.3s-0.1,0.1-0.2,0.1c-0.2,0-0.3,0-0.4-0.1
		c-0.1-0.1-0.1-0.3-0.1-0.5c0-0.3-0.2-1.2-0.5-2.6s-0.7-2.8-1-4.1c-0.4-1.3-0.6-2-0.8-2.2c0,0.4-0.1,1.5-0.1,3.1
		c-0.2,2.9-0.3,5.1-0.3,6.8v0.7c0,0.2-0.2,0.2-0.4,0.2c0,0-0.1,0-0.2-0.1c-0.1-0.1-0.1-0.1-0.1-0.2c0-1.1,0.1-3.1,0.3-5.9
		c0.2-2.6,0.3-4.6,0.3-5.9c0-0.1,0-0.1,0-0.2c0-0.1-0.1-0.1-0.1-0.2c0-0.2,0.2-0.3,0.5-0.3c0.2,0,0.3,0.1,0.4,0.3
		c0,0.2,0.1,0.4,0.1,0.6v0.2c0.1,0.3,0.2,0.8,0.5,1.5c0.2,0.5,0.4,1,0.5,1.4c0.1,0.3,0.1,0.5,0.2,0.7c0.2,0.7,0.3,1.3,0.4,1.6
		l0.2,0.5c0,0.2,0.1,0.5,0.2,0.9c0.1,0.5,0.2,0.9,0.2,1.2c0,0.3,0.1,0.6,0.1,0.9c0.1-0.2,0.5-1.5,1.2-3.8c0.6-2.3,1-3.8,1.1-4.5V9.5
		c0,0,0-0.1,0-0.2c0-0.2,0.1-0.4,0.2-0.7c0.1-0.2,0.2-0.4,0.4-0.4c0.1,0,0.2,0,0.3,0.1S47,8.4,47,8.5c0,5.2,0.1,8,0.2,8.2v1
		c0,0.3,0,0.6,0,1c0,0.8,0,1.4,0.1,1.8c0,0,0,0,0,0.1v0.1c0,0,0,0.1,0,0.2s0,0.3-0.1,0.4s-0.2,0.2-0.3,0.2
		C47,21.7,46.9,21.3,46.9,20.5z M46.7,10.3L46.7,10.3L46.7,10.3L46.7,10.3L46.7,10.3z"/>
</g>
<g>
	<path d="M18.5,38.3c0-0.5,0-1.3,0.1-2.4v-2.4c0-0.9,0-2.2-0.1-3.9c-0.1-1.5-0.1-2.8-0.1-3.9c0-0.9,0.2-1.3,0.6-1.3
		c1,0,1.7,0.3,2.2,0.8s0.8,1.2,0.8,2.1c0,1-0.5,2-1.4,3.1c0.8,0.7,1.3,1.3,1.6,1.9c0.3,0.6,0.5,1.3,0.5,2.2c0,0.5,0,0.9-0.1,1.2
		c0,0.3-0.1,0.6-0.2,0.9c-0.1,0.3-0.2,0.5-0.4,0.7c-0.2,0.2-0.4,0.4-0.7,0.6c-0.3,0.2-0.7,0.3-1.1,0.5c-0.2,0-0.3,0.1-0.4,0.1
		c-0.2,0.1-0.3,0.1-0.4,0.1l0,0C18.8,38.6,18.5,38.5,18.5,38.3z M20.2,30c0.3-0.2,0.5-0.5,0.7-0.9s0.3-0.7,0.4-1.1s0.1-0.8,0.1-1.1
		c0-0.4-0.2-0.8-0.5-1.2c-0.4-0.4-0.8-0.6-1.2-0.6c-0.4,0-0.6,0.3-0.6,0.8c0,0.8,0,1.6,0,2.2v2.2h0.1C19.6,30.4,19.9,30.3,20.2,30z
		 M20.8,37.5c0.4-0.3,0.7-0.6,1-1c0.2-0.4,0.4-0.9,0.4-1.4c0-2.2-0.6-3.6-1.8-4c-0.1,0-0.3,0-0.6,0.1c-0.2,0.1-0.4,0.1-0.5,0.1
		c0.1,2,0.1,4.2,0.1,6.6h0.1h0.1C19.9,37.9,20.4,37.7,20.8,37.5z"/>
	<path d="M29.1,38.6c-0.1,0-0.1-0.2-0.1-0.3c-0.1-0.9-0.2-1.5-0.2-1.7l-0.1-0.7c-0.3-0.1-0.7-0.1-1.1-0.1h-0.8
		c-0.3,0-0.6-0.1-0.7-0.1s-0.1,0-0.1,0.1v0.1v0.4c0,0.2-0.1,0.7-0.2,1.3c-0.1,0.3-0.2,0.6-0.3,0.8c-0.1,0.2-0.2,0.3-0.3,0.3
		c-0.1,0-0.2,0-0.3-0.1c-0.1-0.1-0.1-0.1-0.1-0.2v-0.1v-0.1c0.3-0.9,0.5-1.8,0.6-2.6l0.3-1.2L26,33l0.2-1.2c0.1-0.3,0.2-0.9,0.4-1.6
		c0.2-0.8,0.3-1.4,0.4-1.7c0,0,0-0.3,0.1-0.7c0.1-0.5,0.1-0.8,0.1-1c0-0.3,0.1-0.5,0.1-0.6h0.1h0.1c0.2,0,0.3,0,0.4-0.1
		c0.1,0,0.2,0,0.3,0.1c0.1,0.1,0.1,0.1,0.1,0.2c0,0.6,0,1.3,0.1,2.1c0.1,0.4,0.1,0.7,0.1,1c0.2,1.6,0.6,4.6,1.2,9.1v0.1
		c0,0.1-0.1,0.2-0.2,0.3C29.3,38.6,29.2,38.6,29.1,38.6z M26,24.6c-0.1-0.1-0.1-0.2-0.1-0.3c0-0.1,0.1-0.2,0.2-0.3s0.2-0.2,0.4-0.2
		c0.1,0,0.2,0.1,0.3,0.2c0.1,0.1,0.1,0.3,0.1,0.4s-0.1,0.2-0.2,0.2c-0.1,0.1-0.2,0.1-0.4,0.1C26.2,24.7,26.1,24.7,26,24.6z
		 M28.6,35.3c-0.1-1.8-0.4-4.4-0.8-8l-1.2,5c-0.3,1.4-0.5,2.3-0.5,2.7c0,0.1,0.3,0.1,0.8,0.2s1,0.1,1.4,0.1H28.6z M28.9,24.5
		c-0.1-0.1-0.1-0.2-0.1-0.3c0-0.1,0.1-0.2,0.2-0.3c0.1-0.1,0.2-0.1,0.4-0.1c0.1,0,0.2,0,0.3,0.1c0.1,0.1,0.1,0.2,0.1,0.3
		c0,0.3-0.2,0.4-0.6,0.4C29.1,24.6,29,24.6,28.9,24.5z"/>
	<path d="M33.6,38.6c-0.3-0.1-0.5-0.2-0.7-0.3s-0.4-0.3-0.5-0.6c-0.3-0.5-0.5-1.2-0.5-2.2c0-0.4,0-0.8,0-1.1v-2.1
		c0-0.8,0-1.6,0.1-2.4c0-0.6,0.1-1,0.2-1.4s0.2-0.8,0.4-1.2c0.2-0.4,0.4-0.7,0.7-0.8c0.1-0.1,0.3-0.2,0.6-0.3
		c0.2-0.1,0.4-0.1,0.5-0.2h0.9h0.1c0,0,0,0,0.1,0h0.1l0.1,0.1l0.1,0.1v0.1l-0.3,0.3h-0.9c-0.3,0-0.5,0.1-0.7,0.3
		c-0.2,0.2-0.4,0.5-0.5,0.9c-0.1,0.3-0.2,0.7-0.3,1.1S33,29.7,33,30c0,0.4,0,0.7,0,0.8v0.1c0,0.7,0,1.3,0,1.9v1.9
		c0,0.5,0,1.1,0.1,1.5c0.1,0.5,0.3,0.9,0.6,1.3c0.3,0.4,0.8,0.6,1.5,0.6c0.2,0,0.4-0.1,0.5-0.2c0.2,0,0.3,0.1,0.3,0.2
		c0,0.1-0.1,0.2-0.3,0.3s-0.4,0.2-0.5,0.3h-0.7L33.6,38.6z"/>
	<path d="M41.6,37.1c-0.4-1-0.8-2.2-1.2-3.4c-0.3-1.2-0.5-2.1-0.5-2.5l-0.1-0.1l-0.3,0.6c-0.2,0.3-0.3,0.5-0.4,0.6
		c-0.1,0.2-0.2,0.4-0.2,0.6c-0.1,0.2-0.1,0.5-0.1,0.7s0,0.5,0,0.7V35v2.4c0,0.1,0,0.3,0.1,0.5c0,0.2,0.1,0.4,0.1,0.5s0,0.1-0.1,0.2
		c-0.1,0-0.1,0.1-0.2,0.1c-0.2,0-0.3,0-0.4-0.1c-0.1,0-0.1-0.2-0.1-0.3v-3.5c0-0.2,0-0.6,0.1-1.2c0.1-0.6,0.1-1,0.1-1.2
		c0-0.5,0-1.1,0.1-1.8c0.1-0.7,0.1-1.3,0.1-1.8v-2.6c0.1-0.1,0.2-0.2,0.4-0.2c0.1,0,0.2,0,0.3,0.1s0.1,0.2,0.1,0.3
		c-0.1,0.2-0.2,0.5-0.2,0.9v2c0,0.6,0,1.3,0,2c0.1,0,0.7-0.9,1.7-2.6s1.5-2.5,1.6-2.5c0.4,0,0.6,0.1,0.6,0.3
		c-0.9,1.2-1.7,2.3-2.3,3.5v0.6c0,0.2,0,0.4,0,0.6c0,0.5,0.2,1.6,0.7,3.1s0.9,2.6,1.2,3.1c0.2,0.2,0.2,0.3,0.3,0.3
		c0.1,0.2,0.2,0.3,0.3,0.4c0.1,0.1,0.1,0.2,0.1,0.4c0,0.1,0,0.2-0.1,0.2s-0.2,0.1-0.3,0.1C42.5,38.8,42.1,38.2,41.6,37.1z"/>
	<path d="M45,38.5c-0.1-0.1-0.2-0.2-0.2-0.3l0.1-0.1c0.1,0,0.2,0,0.4,0.1s0.3,0.1,0.4,0.1c0.3,0,0.6-0.1,0.8-0.3s0.4-0.5,0.6-0.9
		c0.2-0.6,0.3-1.3,0.3-1.8c0-0.9-0.3-1.8-0.9-2.8c-0.4-0.6-0.7-1-0.9-1.4c-0.2-0.3-0.4-0.7-0.5-1.2c-0.2-0.5-0.3-1-0.3-1.5
		c0-0.4,0.1-1,0.4-1.6c0.1-0.3,0.3-0.5,0.5-0.7s0.5-0.3,0.8-0.3c0.2,0,0.4,0.1,0.5,0.2c0.2,0.1,0.3,0.2,0.3,0.4
		c0,0.1-0.1,0.2-0.3,0.2c-0.1,0-0.1,0-0.2-0.1c-0.1,0-0.2-0.1-0.2-0.1c-0.2,0-0.4,0.1-0.6,0.2c-0.2,0.1-0.3,0.3-0.4,0.6
		c-0.2,0.5-0.3,0.9-0.3,1.3c0,0.2,0,0.5,0.1,0.7c0,0.1,0,0.1,0,0.2s0,0.1,0,0.1l0.1,0.4l0.1,0.3l0.2,0.3c0,0.1,0.1,0.2,0.1,0.2
		c0,0.1,0.1,0.1,0.1,0.2l0.3,0.4c0.1,0.1,0.2,0.3,0.4,0.5c0.2,0.3,0.4,0.6,0.5,0.9s0.2,0.5,0.3,0.7s0.1,0.5,0.2,0.8
		c0,0.3,0.1,0.7,0.1,1c0,0.6-0.1,1.2-0.3,1.7c-0.3,0.6-0.6,1.1-1.1,1.3c-0.3,0.1-0.6,0.2-0.9,0.2h-0.1C45.3,38.7,45.1,38.6,45,38.5z
		 M47.1,26.5L47.1,26.5L47.1,26.5L47.1,26.5z"/>
	<path d="M51.8,38.2v-0.7c0-0.2,0-0.4,0-0.7c0-0.1,0-0.2,0-0.3v-0.3c0-0.1,0-0.3-0.1-0.4c0-0.8-0.1-2.4-0.2-4.7
		c-0.1-2.2-0.2-3.7-0.2-4.5c-0.9,0-1.5,0-1.8-0.1s-0.4-0.2-0.4-0.3c0.1-0.1,0.2-0.2,0.4-0.2c0.4,0,1,0,1.9,0.1
		c0.7,0.1,1.4,0.1,1.9,0.1h0.4h0.4c0.3,0,0.4,0.1,0.4,0.2s0,0.1-0.1,0.2c-0.1,0-0.2,0.1-0.3,0.1c-0.3,0-0.6,0-0.9,0h-0.9
		c-0.1,0-0.1,0-0.1,0.1c0,0,0,0.2,0,0.4c0,1.2,0.1,3,0.3,5.5s0.2,4.4,0.2,5.5c0,0.1-0.1,0.2-0.2,0.2c-0.1,0.1-0.2,0.1-0.4,0.1
		L51.8,38.2z"/>
	<path d="M60,38.7c-0.2-0.2-0.4-0.6-0.6-1.3c-0.2-0.7-0.4-1.5-0.6-2.4c-0.1-0.7-0.3-1.4-0.5-2.1c0-0.6-0.2-0.9-0.3-0.9h-0.1
		c-0.3,0-0.5,0.1-0.5,0.3c0,0.9,0.1,2.3,0.2,4.1c0.1,1.1,0.1,1.8,0.2,2l-0.2,0.3h-0.3l-0.2-0.1c-0.2-5.8-0.3-9.7-0.3-11.8
		c0-0.1,0-0.2,0-0.3c0-0.1,0.1-0.2,0.1-0.2C57,26,57.1,26,57.3,26c0.7,0,1.3,0.2,1.8,0.5s0.7,0.8,0.7,1.3v1.4c0,0.2-0.1,0.6-0.3,1
		s-0.4,0.8-0.6,1.1l-0.3,0.5c0.2,0.6,0.5,1.8,0.9,3.4c0.5,1.7,0.7,2.5,0.8,2.6c0,0,0,0,0.1,0.1c0,0,0.1,0.1,0.1,0.2
		c0.1,0.2,0.1,0.3,0.1,0.4c0,0.2-0.1,0.3-0.2,0.3L60,38.7z M58.3,31.2c0.2-0.2,0.4-0.5,0.5-0.9c0.2-0.8,0.3-1.4,0.3-1.8
		c0-0.3,0-0.5-0.1-0.7c0-0.2-0.1-0.4-0.2-0.6c-0.2-0.4-0.6-0.7-1.2-0.7c-0.1,0-0.1,0.1-0.2,0.2c0,0.1-0.1,0.2-0.1,0.3
		c0,0.8,0,1.6,0,2.3c0,0.7,0,1.4,0,2.3l0,0C57.8,31.5,58,31.4,58.3,31.2z"/>
	<path d="M62.7,31.9v-0.7c0-3.5,0.5-5.2,1.5-5.2c0.1,0,0.2,0,0.3,0.1c0.5,0.1,0.9,0.2,1.3,0.3c0.3,0,0.5,0.3,0.8,0.7
		c0.3,0.4,0.5,1,0.7,1.8c0.1,0.7,0.2,1.5,0.2,2.3v0.1c0,0.4,0,0.8,0,1.1v1.1c0,0.6,0,1.2-0.1,1.7c-0.1,0.8-0.2,1.4-0.4,2
		c-0.1,0.3-0.3,0.6-0.4,0.8c-0.2,0.2-0.4,0.4-0.6,0.6c-0.2,0.1-0.5,0.2-0.8,0.2C63.5,38.8,62.7,36.5,62.7,31.9z M63.4,24.7
		c-0.1-0.1-0.1-0.2-0.1-0.3s0.1-0.2,0.2-0.3c0.1-0.1,0.2-0.1,0.4-0.1c0.1,0,0.2,0.1,0.3,0.2s0.1,0.3,0.1,0.4s-0.1,0.2-0.2,0.2
		c-0.1,0.1-0.2,0.1-0.4,0.1C63.6,24.9,63.5,24.8,63.4,24.7z M66.4,37.3c0.3-0.7,0.4-1.4,0.5-2.1c0.1-0.7,0.1-1.3,0.1-1.8
		s0-1.2-0.1-2.2c-0.1-1.1-0.1-1.8-0.1-2.2l-0.1-0.1v-0.1c0-0.5-0.2-1-0.5-1.4s-0.8-0.6-1.3-0.6c-0.7,0-1,0.3-1.2,0.8
		c0,0.2-0.1,0.5-0.1,0.8c0,0.9,0,1.6-0.1,1.9c0,0.2,0,0.5-0.1,0.9v0.9c0,0.3,0,0.5,0,0.7v0.7c0,0.6,0.1,1.3,0.2,2
		c0.1,0.6,0.2,1,0.3,1.4c0.1,0.4,0.3,0.7,0.5,1c0.2,0.3,0.5,0.4,0.7,0.4C65.7,38.3,66.1,37.9,66.4,37.3z M66.2,24.7
		c-0.1-0.1-0.1-0.2-0.1-0.3c0-0.1,0.1-0.2,0.2-0.3c0.1-0.1,0.2-0.1,0.4-0.1c0.1,0,0.2,0,0.3,0.1c0.1,0.1,0.1,0.2,0.1,0.3
		c0,0.3-0.2,0.4-0.6,0.4C66.4,24.8,66.3,24.8,66.2,24.7z"/>
	<path d="M78.4,38.2V37c0-1.8,0-3.2-0.1-4.2l-0.1-0.7c-0.1-0.3-0.1-0.6-0.1-0.8c0-0.4,0-0.8,0-1.2v-1.2c0-0.4,0-0.7-0.1-0.9
		c-0.3,0.2-1.1,2.8-2.6,7.9v0.3c0,0.3-0.1,0.6-0.2,0.7c0,0.1-0.1,0.2-0.2,0.3s-0.2,0.1-0.3,0.1c-0.2,0-0.4,0-0.5-0.1
		s-0.1-0.3-0.1-0.5c0-0.3-0.2-1.2-0.5-2.6c-0.4-1.4-0.8-2.8-1.2-4.1c-0.4-1.3-0.7-2-0.9-2.2c0,0.4-0.1,1.5-0.2,3.1
		C71.1,33.8,71,36,71,37.7v0.7c-0.1,0.2-0.2,0.2-0.4,0.2c0,0-0.1,0-0.2-0.1s-0.1-0.1-0.1-0.2c0-1.1,0.1-3.1,0.3-5.9
		c0.2-2.6,0.3-4.6,0.3-5.9c0-0.1,0-0.1,0-0.2s-0.1-0.1-0.1-0.2c0-0.2,0.2-0.3,0.6-0.3c0.2,0,0.4,0.1,0.4,0.3C72,26.7,72,26.8,72,27
		v0.2c0.1,0.3,0.3,0.8,0.6,1.5c0.3,0.5,0.5,1,0.6,1.4c0.1,0.3,0.2,0.5,0.2,0.7c0.2,0.7,0.4,1.3,0.4,1.6l0.3,0.5
		c0,0.2,0.1,0.5,0.3,0.9c0.1,0.5,0.2,0.9,0.3,1.2c0.1,0.3,0.1,0.6,0.1,0.9c0.2-0.2,0.6-1.5,1.3-3.8c0.7-2.3,1.2-3.8,1.3-4.5v-0.1
		c0,0,0-0.1,0-0.2c0-0.2,0.1-0.4,0.2-0.7c0.1-0.2,0.3-0.4,0.5-0.4c0.1,0,0.2,0,0.3,0.1c0.1,0.1,0.2,0.2,0.2,0.2c0,5.2,0.1,8,0.3,8.2
		v1c0,0.3,0,0.6,0,1c0,0.8,0,1.4,0.2,1.8c0,0,0,0,0,0.1v0.1c0,0,0,0.1,0,0.2c0,0.1,0,0.3-0.1,0.4c-0.1,0.1-0.2,0.2-0.3,0.2
		C78.5,39.4,78.4,39,78.4,38.2z M78.1,28L78.1,28L78.1,28L78.1,28L78.1,28z"/>
</g>
<g>
	<path d="M55.9,11.5V5.7h-2.6V5.3H59v0.4h-2.6v5.7h-0.5V11.5z"/>
	<path d="M61.7,11.5c-0.5,0-1-0.1-1.4-0.3s-0.7-0.5-1-0.8C59,10,58.9,9.6,58.9,9.2c0-0.5,0.1-0.9,0.3-1.2s0.5-0.6,0.9-0.8
		C60.6,7,61,6.9,61.5,6.9s0.9,0.1,1.3,0.3s0.7,0.5,0.9,0.8C63.9,8.3,64,8.7,64,9.2c0,0,0,0,0,0.1c0,0,0,0,0,0.1h-4.7V9h4.4l-0.2,0.2
		c0-0.4-0.1-0.7-0.3-1s-0.4-0.5-0.7-0.7s-0.7-0.2-1.1-0.2c-0.4,0-0.7,0.1-1,0.2c-0.3,0.2-0.5,0.4-0.7,0.7c-0.2,0.3-0.3,0.6-0.3,1
		v0.1c0,0.4,0.1,0.7,0.3,1s0.5,0.5,0.8,0.7s0.7,0.2,1.2,0.2c0.3,0,0.7-0.1,0.9-0.2c0.3-0.1,0.5-0.3,0.7-0.5l0.3,0.3
		c-0.2,0.2-0.5,0.4-0.9,0.6C62.4,11.5,62.1,11.5,61.7,11.5z"/>
	<path d="M68.1,6.9c0.4,0,0.8,0.1,1.1,0.2c0.3,0.1,0.6,0.4,0.7,0.6c0.2,0.3,0.3,0.6,0.3,1.1v2.7h-0.5V8.8c0-0.5-0.2-0.9-0.5-1.2
		s-0.7-0.4-1.3-0.4c-0.4,0-0.8,0.1-1.1,0.2c-0.3,0.1-0.5,0.4-0.7,0.6c-0.2,0.3-0.2,0.6-0.2,0.9v2.4h-0.5V6.9H66v1.3V8
		c0.2-0.4,0.4-0.6,0.8-0.9C67.1,7,67.6,6.9,68.1,6.9z"/>
	<path d="M74.4,11.5c-0.5,0-1-0.1-1.4-0.3s-0.7-0.5-0.9-0.8c-0.2-0.4-0.3-0.8-0.3-1.2c0-0.5,0.1-0.9,0.3-1.2
		c0.2-0.3,0.5-0.6,0.9-0.8c0.4-0.2,0.8-0.3,1.4-0.3s1,0.1,1.4,0.3c0.4,0.2,0.7,0.5,0.9,0.8S77,8.8,77,9.2c0,0.5-0.1,0.9-0.3,1.2
		s-0.5,0.6-0.9,0.8S75,11.5,74.4,11.5z M74.4,11.1c0.4,0,0.8-0.1,1.1-0.2s0.6-0.4,0.8-0.7s0.3-0.6,0.3-1s-0.1-0.7-0.3-1
		s-0.4-0.5-0.8-0.7c-0.3-0.2-0.7-0.2-1.1-0.2s-0.8,0.1-1.1,0.2c-0.3,0.2-0.6,0.4-0.8,0.7c-0.2,0.3-0.3,0.6-0.3,1s0.1,0.7,0.3,1
		s0.4,0.5,0.8,0.7C73.7,11,74,11.1,74.4,11.1z"/>
	<path d="M78.7,11.5V6.9h0.5v1.3L79.1,8c0.1-0.4,0.4-0.7,0.8-0.9c0.4-0.2,0.8-0.3,1.3-0.3v0.4c0,0,0,0-0.1,0s0,0-0.1,0
		c-0.6,0-1,0.2-1.4,0.5S79.1,8.5,79.1,9v2.4h-0.4V11.5z"/>
</g>
</svg>
