<svg xmlns="http://www.w3.org/2000/svg" fill="#636a7e" xmlns:xlink="http://www.w3.org/1999/xlink" width="60" zoomAndPan="magnify" viewBox="0 0 45 30.000001" height="40" preserveAspectRatio="xMidYMid meet" version="1.0"><defs><clipPath id="8d559e86a4"><path d="M 3.125 14.152344 L 16.664062 14.152344 L 16.664062 27.566406 L 3.125 27.566406 Z M 3.125 14.152344 " clip-rule="nonzero"/></clipPath><clipPath id="b741e92e6b"><path d="M 28.164062 9.449219 L 41.59375 9.449219 L 41.59375 23.320312 L 28.164062 23.320312 Z M 28.164062 9.449219 " clip-rule="nonzero"/></clipPath></defs><g clip-path="url(#8d559e86a4)"><path fill="#ffffff" d="M 16.609375 23.90625 C 16.574219 23.019531 16.382812 22.09375 16.339844 21.40625 C 16.214844 19.519531 15.953125 17.640625 15.558594 15.796875 C 15.496094 15.511719 15.429688 15.222656 15.269531 14.980469 C 14.882812 14.390625 13.792969 14.644531 13.175781 14.589844 C 12.175781 14.5 11.171875 14.429688 10.167969 14.363281 C 9.40625 14.316406 6.640625 13.78125 6.796875 15.140625 C 7.136719 18.078125 7.675781 20.988281 8.417969 23.847656 C 7.4375 23.050781 6.070312 22.761719 4.863281 23.144531 C 3.464844 23.582031 2.53125 25.191406 3.566406 26.480469 C 4.488281 27.628906 6.1875 27.867188 7.449219 27.203125 C 10.359375 25.667969 8.976562 22.261719 8.585938 19.75 C 8.371094 18.34375 8.238281 16.871094 7.886719 15.488281 C 8.914062 15.191406 10.003906 15.410156 11.039062 15.546875 C 11.386719 15.59375 14.273438 15.832031 14.289062 15.902344 C 14.601562 17.191406 14.859375 18.488281 15.070312 19.792969 C 15.222656 20.992188 15.367188 22.191406 15.5 23.390625 C 15.449219 23.421875 15.410156 23.464844 15.382812 23.511719 C 14.222656 23.191406 12.863281 22.875 11.921875 23.910156 C 11.199219 24.703125 11.160156 26.078125 12.09375 26.714844 C 13.117188 27.410156 15.035156 26.941406 15.921875 26.175781 C 16.519531 25.660156 16.644531 24.804688 16.609375 23.90625 " fill-opacity="1" fill-rule="nonzero"/></g><path fill="#ffffff" d="M 26.628906 6.132812 C 26.007812 3.769531 23.464844 2.910156 22.589844 0.726562 C 22.304688 0.0078125 21.671875 0.484375 21.605469 1.019531 C 21.523438 1.722656 21.785156 2.316406 21.863281 2.988281 C 21.953125 3.769531 21.8125 4.632812 21.835938 5.421875 C 21.851562 5.871094 22.355469 10.191406 22.207031 10.253906 C 22.148438 10.28125 22.097656 10.316406 22.058594 10.367188 C 19.945312 9.75 17.425781 12.433594 18.828125 14.550781 C 20.117188 16.496094 22.40625 14.304688 23.023438 12.9375 C 23.171875 12.617188 23.308594 12.285156 23.328125 11.933594 C 23.414062 10.515625 23.042969 8.882812 22.945312 7.449219 C 22.878906 6.535156 22.828125 5.617188 22.761719 4.699219 C 22.726562 4.207031 22.851562 2.703125 22.546875 2.328125 C 23.53125 3.539062 24.898438 4.445312 25.410156 5.953125 C 26.050781 7.824219 24.90625 9.730469 25.636719 11.5625 C 25.710938 11.746094 26.035156 11.894531 26.136719 11.652344 C 26.785156 10.125 27.054688 7.757812 26.628906 6.132812 " fill-opacity="1" fill-rule="nonzero"/><g clip-path="url(#b741e92e6b)"><path fill="#ffffff" d="M 40.585938 21.59375 C 40.589844 21.574219 40.59375 21.558594 40.597656 21.539062 C 40.972656 19.738281 41.132812 17.902344 41.292969 16.070312 C 41.375 15.132812 41.449219 14.199219 41.554688 13.265625 C 41.65625 12.316406 41.632812 11.945312 40.71875 11.527344 C 40.355469 11.359375 39.980469 11.289062 39.609375 11.183594 C 38.519531 10.871094 37.359375 10.414062 36.25 10.246094 C 35.5625 10.144531 34.941406 9.855469 34.261719 9.703125 C 33.941406 9.628906 33.316406 9.363281 33 9.535156 C 32.613281 9.742188 32.890625 10.316406 32.867188 10.730469 C 32.789062 12.183594 32.859375 13.628906 32.839844 15.082031 C 32.824219 16.140625 32.722656 17.265625 32.773438 18.355469 C 32.148438 17.59375 31.210938 17.058594 30.226562 17.144531 C 29.171875 17.238281 28.078125 18.0625 28.207031 19.25 C 28.46875 21.667969 32.496094 21.925781 33.394531 19.886719 C 33.597656 19.433594 33.617188 18.917969 33.636719 18.417969 C 33.652344 18.039062 33.664062 17.660156 33.679688 17.28125 C 33.726562 16.09375 33.796875 14.910156 33.816406 13.722656 C 33.828125 13.113281 33.832031 12.5 33.808594 11.890625 C 33.789062 11.453125 33.609375 10.933594 34.140625 10.894531 C 34.449219 10.867188 35.003906 11.167969 35.324219 11.242188 C 35.753906 11.34375 36.191406 11.425781 36.617188 11.542969 C 37.542969 11.804688 39.320312 12.070312 40.074219 12.65625 C 40.753906 13.1875 40.410156 14.75 40.339844 15.664062 C 40.304688 16.117188 40.257812 16.570312 40.210938 17.023438 C 40.113281 17.992188 40.242188 19.148438 39.828125 20.058594 C 39.574219 19.289062 38.386719 19.164062 37.714844 19.027344 C 36.894531 18.859375 36.117188 19.613281 35.835938 20.355469 C 35.105469 22.28125 38.539062 24.113281 39.886719 22.9375 C 40.269531 22.601562 40.476562 22.097656 40.585938 21.59375 " fill-opacity="1" fill-rule="nonzero"/></g></svg>