<?xml version="1.0" encoding="UTF-8"?>
<svg viewBox="-20 -20 80 80" xmlns="http://www.w3.org/2000/svg" xmlns:xlink="http://www.w3.org/1999/xlink" fill="#636a7e">
 <g transform="translate(-80.598 -338.39)" fill-rule="evenodd" stroke="#636a7e">
  <path d="m94.574 338.62c-8.7848 0.20794-15.515 6.3621-13.334 15.787 0.00257 0.0111 0.01334 0.02075 0.01593 0.03186 0.25605 3.2505 2.9607 5.8147 6.2767 5.8147 3.4849 0 6.3085-2.8236 6.3085-6.3085 0-3.0714-2.1907-5.6324-5.0978-6.197-1.1585-0.40989-2.896-1.3419-2.8197-2.8356 0.03514-0.74343 0.90303-2.0919 2.294-2.7719 1.6906-0.79335 3.4338-1.2227 5.1934-0.86025 2.6673 0.48694 9.4886 5.3849 10.02 13.876 0.30521 6.4465-3.3159 15.15-6.8502 19.276-5.6976 6.5034-14.851 10.543-13.955 11.263 0.80363 0.71997 11.61-4.2193 17.237-10.419 6.8668-7.4357 10.266-13.634 9.9407-21.172-0.19582-7.538-6.0317-15.699-15.23-15.485z" stroke-width=".45574"/>
  <path transform="matrix(.50978 0 0 .50978 61.959 329.32)" d="m116.86 36.473a9.7721 9.1614 0 1 1 -19.544 0 9.7721 9.1614 0 1 1 19.544 0z" stroke-linecap="round" stroke-linejoin="round" stroke-width=".894"/>
  <path transform="matrix(.50978 0 0 .50978 61.959 342.37)" d="m116.86 36.473a9.7721 9.1614 0 1 1 -19.544 0 9.7721 9.1614 0 1 1 19.544 0z" stroke-linecap="round" stroke-linejoin="round" stroke-width=".894"/>
 </g>
</svg>
